<svg width="41" height="40" viewBox="0 0 41 40" fill="none" xmlns="http://www.w3.org/2000/svg">
<g filter="url(#filter0_d_119_32)">
<path d="M27.5002 0H13.4998C10.9802 0 8.5639 1.00079 6.78234 2.78234C5.00079 4.5639 4 6.98033 4 9.49979V23.5002C4 26.0198 5.00079 28.4361 6.78234 30.2177C8.5639 31.9992 10.9803 33 13.4998 33H27.5002C30.0198 33 32.4361 31.9992 34.2177 30.2177C35.9992 28.4361 37 26.0197 37 23.5002V9.49979C37 6.98024 35.9992 4.5639 34.2177 2.78234C32.4361 1.00079 30.0197 0 27.5002 0ZM13.5006 2.99997H27.5002C29.2225 3.00533 30.8725 3.6917 32.0906 4.90941C33.3083 6.12748 33.9947 7.77746 34 9.49979V9.99967L7.50002 10C7.32859 10.0023 7.15917 10.0362 7.00014 10.0998V9.49979C7.0055 7.77746 7.69187 6.12748 8.90958 4.90941C10.1276 3.69168 11.7783 3.00528 13.5006 2.99997ZM24.0005 29.9997H17.0005V22.9996H24.0005V29.9997ZM24.0005 19.9995H17.0005V12.9995H24.0005V19.9995ZM7.00014 12.8997C7.15918 12.9633 7.32859 12.9971 7.50002 12.9998H14.0002V19.9999L7.50002 19.9995C7.32859 20.0022 7.15917 20.036 7.00014 20.0996V12.8997ZM7.00014 23.4999V22.8999C7.15918 22.9635 7.32859 22.9973 7.50002 22.9997H14.0002V29.9997H13.5C11.7776 29.9943 10.1277 29.308 8.90959 28.0903C7.69186 26.8722 7.00545 25.2222 7.00014 23.4999ZM27.5002 29.9997H27.0003V13.0002H34.0004L34 23.5C33.9947 25.2224 33.3083 26.8723 32.0906 28.0904C30.8725 29.3082 29.2225 29.9944 27.5002 29.9997Z" fill="#EDEDED"/>
<path d="M33.5 9.49967C33.4947 7.91007 32.861 6.38732 31.7371 5.26301C30.6126 4.13883 29.0894 3.50511 27.4994 3.49997H13.5014C11.9114 3.50507 10.3877 4.1388 9.26318 5.26291C9.26315 5.26294 9.26311 5.26298 9.26308 5.26301L33.5 9.49967ZM33.5 9.49967L7.50014 9.5M13.5006 2.49997L13.4991 2.49997C11.6448 2.50569 9.86756 3.24469 8.55607 4.5558L8.55597 4.55591C7.24492 5.86735 6.50591 7.64385 6.50014 9.49823V9.49979V10.0998V10.8383L7.18585 10.564C7.28697 10.5236 7.39472 10.5019 7.50387 10.5L34 10.4997L34.5 10.4997V9.99967L34.5 9.49979L34.5 9.49824C34.4943 7.64385 33.7553 5.86735 32.4442 4.5559L32.4441 4.5558C31.1326 3.24475 29.3561 2.50574 27.5018 2.49997H27.5002L13.5006 2.49997Z" stroke="black"/>
</g>
<defs>
<filter id="filter0_d_119_32" x="0" y="0" width="41" height="41" filterUnits="userSpaceOnUse" color-interpolation-filters="sRGB">
<feFlood flood-opacity="0" result="BackgroundImageFix"/>
<feColorMatrix in="SourceAlpha" type="matrix" values="0 0 0 0 0 0 0 0 0 0 0 0 0 0 0 0 0 0 127 0" result="hardAlpha"/>
<feOffset dy="4"/>
<feGaussianBlur stdDeviation="2"/>
<feComposite in2="hardAlpha" operator="out"/>
<feColorMatrix type="matrix" values="0 0 0 0 0 0 0 0 0 0 0 0 0 0 0 0 0 0 0.25 0"/>
<feBlend mode="normal" in2="BackgroundImageFix" result="effect1_dropShadow_119_32"/>
<feBlend mode="normal" in="SourceGraphic" in2="effect1_dropShadow_119_32" result="shape"/>
</filter>
</defs>
</svg>
