<svg width="41" height="40" viewBox="0 0 41 40" fill="none" xmlns="http://www.w3.org/2000/svg">
<g filter="url(#filter0_d_120_47)">
<path d="M27.5002 0H13.4998C10.9802 0 8.5639 1.00079 6.78234 2.78234C5.00079 4.5639 4 6.98033 4 9.49979V23.5002C4 26.0198 5.00079 28.4361 6.78234 30.2177C8.5639 31.9992 10.9803 33 13.4998 33H27.5002C30.0198 33 32.4361 31.9992 34.2177 30.2177C35.9992 28.4361 37 26.0197 37 23.5002V9.49979C37 6.98024 35.9992 4.5639 34.2177 2.78234C32.4361 1.00079 30.0197 0 27.5002 0ZM13.5006 2.99997H27.5002C29.2225 3.00533 30.8725 3.6917 32.0906 4.90941C33.3083 6.12748 33.9947 7.77746 34 9.49979V9.99967L7.50002 10C7.32859 10.0023 7.15917 10.0362 7.00014 10.0998V9.49979C7.0055 7.77746 7.69187 6.12748 8.90958 4.90941C10.1276 3.69168 11.7783 3.00528 13.5006 2.99997ZM24.0005 29.9997H17.0005V22.9996H24.0005V29.9997ZM24.0005 19.9995H17.0005V12.9995H24.0005V19.9995ZM7.00014 12.8997C7.15918 12.9633 7.32859 12.9971 7.50002 12.9998H14.0002V19.9999L7.50002 19.9995C7.32859 20.0022 7.15917 20.036 7.00014 20.0996V12.8997ZM7.00014 23.4999V22.8999C7.15918 22.9635 7.32859 22.9973 7.50002 22.9997H14.0002V29.9997H13.5C11.7776 29.9943 10.1277 29.308 8.90959 28.0903C7.69186 26.8722 7.00545 25.2222 7.00014 23.4999ZM27.5002 29.9997H27.0003V13.0002H34.0004L34 23.5C33.9947 25.2224 33.3083 26.8723 32.0906 28.0904C30.8725 29.3082 29.2225 29.9944 27.5002 29.9997Z" fill="#BF1B2C"/>
<path d="M13.5006 2.69997L13.4997 2.69997C11.6982 2.70553 9.97159 3.42348 8.69747 4.69724L8.69741 4.69731C7.4237 5.9714 6.70574 7.69729 6.70014 9.49885V9.49979V10.0998V10.5429L7.11156 10.3783C7.23582 10.3286 7.36819 10.3021 7.50222 10.3C7.50285 10.3 7.50349 10.3 7.50412 10.3L34 10.2997L34.3 10.2997V9.99967L34.3 9.49979L34.3 9.49886C34.2945 7.69729 33.5765 5.9714 32.3028 4.6973L32.3027 4.69724C31.0286 3.42353 29.3027 2.70557 27.5011 2.69997H27.5002L13.5006 2.69997ZM13.5006 2.99997H27.5002L7.50002 10C7.43292 10.0009 7.36612 10.0067 7.30014 10.0171V10.0998H7.00014L6.88872 9.82124C6.92543 9.80655 6.96259 9.79318 7.00014 9.78112V9.49979C7.0055 7.77746 7.69187 6.12748 8.90958 4.90941C10.1276 3.69168 11.7783 3.00528 13.5006 2.99997ZM24.0005 30.2997H24.3005V29.9997V22.9996V22.6996H24.0005H17.0005H16.7005V22.9996V29.9997V30.2997H17.0005H24.0005ZM24.0005 20.2995H24.3005V19.9995V12.9995V12.6995H24.0005H17.0005H16.7005V12.9995V19.9995V20.2995H17.0005H24.0005ZM7.11156 12.6212L6.70014 12.4566V12.8997V20.0996V20.5428L7.11156 20.3782C7.23573 20.3285 7.36819 20.3019 7.50252 20.2995L14.0002 20.2999L14.3002 20.2999V19.9998V12.9998V12.6998H14.0002H7.50254C7.3682 12.6974 7.23574 12.6708 7.11156 12.6212ZM6.70014 23.4999L6.70014 23.5008C6.7057 25.3024 7.42369 27.0283 8.69742 28.3024L8.69749 28.3024C9.97158 29.5761 11.6975 30.2941 13.499 30.2997H13.5H14.0002H14.3002V29.9997V22.9997V22.6997H14.0002H7.50229C7.36824 22.6976 7.23584 22.671 7.11156 22.6213L6.70014 22.4568V22.8999L6.70014 23.4999ZM27.5002 30.2997L27.5011 30.2997C29.3027 30.2941 31.0286 29.5763 32.3027 28.3026L32.3028 28.3025C33.5765 27.0284 34.2944 25.3025 34.3 23.501V23.5001L34.3004 13.0002L34.3004 12.7002H34.0004H27.0003H26.7003V13.0002V29.9997V30.2997H27.0003L27.5002 30.2997ZM13.4998 0.3H27.5002C29.9401 0.3 32.2802 1.26919 34.0055 2.99447C35.7308 4.71976 36.7 7.0598 36.7 9.49979V23.5002C36.7 25.9401 35.7308 28.2802 34.0055 30.0055C32.2802 31.7308 29.9402 32.7 27.5002 32.7H13.4998C11.0599 32.7 8.71976 31.7308 6.99447 30.0055C5.26919 28.2802 4.3 25.9402 4.3 23.5002V9.49979C4.3 7.05988 5.26919 4.71976 6.99447 2.99447C8.71976 1.26919 11.0598 0.3 13.4998 0.3Z" stroke="black" stroke-width="0.6"/>
</g>
<defs>
<filter id="filter0_d_120_47" x="0" y="0" width="41" height="41" filterUnits="userSpaceOnUse" color-interpolation-filters="sRGB">
<feFlood flood-opacity="0" result="BackgroundImageFix"/>
<feColorMatrix in="SourceAlpha" type="matrix" values="0 0 0 0 0 0 0 0 0 0 0 0 0 0 0 0 0 0 127 0" result="hardAlpha"/>
<feOffset dy="4"/>
<feGaussianBlur stdDeviation="2"/>
<feComposite in2="hardAlpha" operator="out"/>
<feColorMatrix type="matrix" values="0 0 0 0 0 0 0 0 0 0 0 0 0 0 0 0 0 0 0.25 0"/>
<feBlend mode="normal" in2="BackgroundImageFix" result="effect1_dropShadow_120_47"/>
<feBlend mode="normal" in="SourceGraphic" in2="effect1_dropShadow_120_47" result="shape"/>
</filter>
</defs>
</svg>
