<svg width="33" height="33" viewBox="0 0 33 33" fill="none" xmlns="http://www.w3.org/2000/svg">
<path d="M13.2207 2.54756L13.4572 2.48929L13.5571 2.26711C13.7869 1.75592 14.1852 1.30936 14.7098 0.991145C15.2346 0.672717 15.8581 0.5 16.5 0.5C17.1419 0.5 17.7654 0.672717 18.2902 0.991145C18.8148 1.30936 19.2131 1.75592 19.4429 2.26711L19.5427 2.48899L19.7788 2.54744C22.3942 3.19472 24.6918 4.59455 26.324 6.52189C27.9554 8.44816 28.833 10.7951 28.8331 13.2017V20.9509V21.116L28.9314 21.2486L32.29 25.7823L32.2901 25.7824C32.4181 25.9551 32.4879 26.1504 32.4986 26.3472C32.5092 26.544 32.4607 26.7427 32.3534 26.9231C32.2457 27.1043 32.0812 27.2625 31.8715 27.3755C31.6617 27.4887 31.4178 27.5502 31.1665 27.5501H31.1664H22.8524H22.4263L22.3587 27.9709C22.1594 29.2122 21.4678 30.3595 20.3941 31.1962C19.3193 32.0337 17.9371 32.5 16.5 32.5C15.0629 32.5 13.6807 32.0337 12.6059 31.1962C11.5322 30.3595 10.8406 29.2122 10.6413 27.9709L10.5737 27.5501H10.1476H1.83358H1.83351C1.5822 27.5502 1.33835 27.4887 1.12849 27.3755C0.918835 27.2625 0.754301 27.1043 0.646611 26.9231C0.539307 26.7427 0.490814 26.544 0.501433 26.3472C0.512058 26.1504 0.581927 25.9551 0.709924 25.7824L0.710035 25.7823L4.06865 21.2486L4.16688 21.116V20.9509V13.2017C4.16688 8.15018 7.96795 3.84168 13.2207 2.54756ZM13.9059 28.0501V28.0509L13.4422 28.2327C13.6727 28.8204 14.0961 29.3197 14.644 29.6685C15.1915 30.0171 15.8402 30.2013 16.5009 30.2013C17.1617 30.2013 17.8103 30.0171 18.3578 29.6685C18.9057 29.3197 19.3292 28.8204 19.5596 28.2327L19.8273 27.5501H19.0941H14.2487H13.9077H13.9059V28.0501ZM6.83349 21.4508V21.451C6.83354 21.6656 6.76325 21.8806 6.62375 22.0688L6.62368 22.0689L4.8582 24.4529L4.26757 25.2505H5.26002H27.7381H28.7306L28.14 24.4529L26.375 22.0696C26.375 22.0696 26.375 22.0696 26.3749 22.0695C26.236 21.8812 26.1661 21.6663 26.1665 21.4518V21.4508V13.2017C26.1665 10.8633 25.1338 8.63275 23.3162 6.99703C21.5003 5.36288 19.0477 4.45258 16.5 4.45258C13.9523 4.45258 11.4997 5.36288 9.68383 6.99703C7.8662 8.63275 6.83349 10.8633 6.83349 13.2017V21.4508Z" fill="#BF1B2C" stroke="black"/>
</svg>
