<svg width="33" height="33" viewBox="0 0 33 33" fill="none" xmlns="http://www.w3.org/2000/svg">
<mask id="path-1-inside-1_119_40" fill="white">
<path d="M19.2554 33H13.6927C12.7123 33 11.7718 32.6174 11.0785 31.9365C10.3853 31.2557 9.99574 30.332 9.99574 29.3691C9.99921 29.1765 9.94976 28.9865 9.85258 28.8192C9.75512 28.6522 9.61369 28.5138 9.44307 28.419C9.10412 28.2139 8.67641 28.2139 8.33739 28.419C7.48796 28.9104 6.47283 29.045 5.52138 28.7922C4.57651 28.5354 3.77076 27.9268 3.27567 27.0956L0.494378 22.3618C0.00532336 21.529 -0.127419 20.54 0.125345 19.6112C0.377828 18.6824 0.995286 17.8899 1.84183 17.4076C2.01565 17.315 2.16083 17.1778 2.26119 17.0102C2.36154 16.8429 2.41389 16.6518 2.41187 16.4575C2.41418 16.2675 2.36415 16.0803 2.26669 15.9158C2.16923 15.7517 2.02838 15.6162 1.85919 15.5244C1.00835 15.0416 0.387105 14.2474 0.131158 13.3155C-0.124501 12.3838 0.00592974 11.3905 0.4944 10.5532L3.27569 5.81937C3.77082 4.98825 4.57653 4.37957 5.5214 4.12281C6.479 3.89388 7.48976 4.05947 8.32009 4.58097C8.5477 4.72384 8.82042 4.78122 9.08764 4.74259C9.35516 4.70425 9.59925 4.57216 9.77567 4.37107C9.95208 4.16997 10.0484 3.91319 10.0475 3.64762C10.0429 2.68191 10.4304 1.75393 11.1243 1.0694C11.8181 0.384868 12.7611 0 13.7445 0H19.3072C20.2879 0 21.2281 0.382315 21.9214 1.06344C22.6146 1.74428 23.0042 2.66766 23.0042 3.6309C23.0007 3.82347 23.0501 4.01321 23.1473 4.18051C23.2448 4.34781 23.3862 4.48614 23.5571 4.58101C23.8961 4.78608 24.3238 4.78608 24.6628 4.58101C25.5119 4.08934 26.5271 3.9547 27.4785 4.20778C28.4234 4.46455 29.2291 5.07322 29.7242 5.90434L32.5055 10.6382L32.5058 10.6379C32.9946 11.4707 33.1273 12.46 32.8748 13.3888C32.6221 14.3173 32.0049 15.1098 31.1581 15.5924C30.9842 15.6847 30.8391 15.8222 30.7387 15.9895C30.6384 16.1571 30.5863 16.3482 30.588 16.5425C30.5857 16.7325 30.636 16.9197 30.7332 17.0839C30.8307 17.2483 30.9715 17.3835 31.141 17.4756C31.9915 17.9584 32.6128 18.7526 32.8687 19.6842C33.1244 20.6161 32.994 21.6095 32.5058 22.4468L29.7245 27.1806L29.7242 27.1803C29.2291 28.0114 28.4234 28.6201 27.4785 28.8772C26.5328 29.1311 25.5226 28.9962 24.6798 28.504C24.4522 28.3611 24.1798 28.3034 23.9123 28.342C23.6447 28.3807 23.4006 28.5125 23.2242 28.7136C23.0481 28.9147 22.9515 29.1717 22.9524 29.437C22.9341 30.3883 22.5368 31.2943 21.8456 31.9607C21.1541 32.6271 20.224 33.0003 19.2555 33L19.2554 33ZM8.89014 25.7213C9.53941 25.7239 10.1768 25.8934 10.7388 26.2136C11.3022 26.5291 11.7704 26.9858 12.0952 27.5375C12.4199 28.0888 12.5897 28.7151 12.5871 29.3522C12.5871 29.6419 12.7031 29.9197 12.9099 30.1262C13.1166 30.3324 13.398 30.4506 13.6927 30.4551H19.2554C19.5486 30.4551 19.8298 30.3407 20.0371 30.137C20.2445 29.9334 20.3611 29.6573 20.3611 29.3692C20.3573 28.7296 20.5265 28.1004 20.851 27.546C21.1758 26.9915 21.6446 26.5317 22.2094 26.2136C22.7693 25.8881 23.4076 25.7162 24.0581 25.7162C24.7085 25.7162 25.3468 25.8881 25.9064 26.2136C26.1603 26.3613 26.464 26.403 26.7495 26.3298C27.0349 26.2565 27.279 26.0741 27.4268 25.8233L30.2946 21.0895C30.4441 20.8427 30.4863 20.5473 30.4114 20.2695C30.3368 19.992 30.1514 19.7554 29.8972 19.6134C29.1427 19.1873 28.5654 18.513 28.2672 17.7097C27.969 16.9065 27.969 16.0257 28.2672 15.2224C28.5654 14.4194 29.1426 13.7451 29.8972 13.3188C30.1526 13.1736 30.3382 12.9342 30.4128 12.6538C30.4875 12.3732 30.445 12.0752 30.2946 11.8258L27.4268 7.09201C27.2787 6.84234 27.0369 6.65942 26.7529 6.58301C26.4715 6.51029 26.1722 6.55318 25.9238 6.70174C24.7782 7.34736 23.3701 7.34707 22.2251 6.70088C21.0798 6.0547 20.3701 4.86006 20.3611 3.56313C20.3611 3.27341 20.2452 2.99562 20.0384 2.78909C19.8316 2.58288 19.5502 2.46472 19.2555 2.46018H13.6928C13.3996 2.46018 13.1185 2.57465 12.9111 2.7783C12.7037 2.98196 12.5872 3.25805 12.5872 3.54609C12.5909 4.18575 12.4217 4.81487 12.0972 5.36932C11.7725 5.92376 11.3036 6.3836 10.7388 6.70173C10.1789 7.02724 9.54058 7.19908 8.89016 7.19908C8.23974 7.19908 7.60146 7.02723 7.04181 6.70173C6.78788 6.55403 6.48422 6.51227 6.19874 6.58555C5.91329 6.65883 5.66921 6.84118 5.52142 7.09199L2.74013 11.8258C2.59061 12.0726 2.54839 12.368 2.623 12.6458C2.6979 12.9233 2.88329 13.1599 3.1375 13.3019C3.89202 13.728 4.46929 14.4023 4.76751 15.2056C5.06568 16.0089 5.06568 16.8896 4.76751 17.6929C4.46934 18.4959 3.89209 19.1702 3.1375 19.5966C2.87924 19.7389 2.6898 19.9772 2.61172 20.2578C2.53392 20.5384 2.57383 20.8381 2.72277 21.0895L5.50407 25.8233C5.65214 26.073 5.89421 26.2559 6.17793 26.3323C6.45933 26.405 6.75866 26.3621 7.00707 26.2136C7.58086 25.8923 8.22958 25.7228 8.89014 25.7214V25.7213Z"/>
</mask>
<path d="M19.2554 33H13.6927C12.7123 33 11.7718 32.6174 11.0785 31.9365C10.3853 31.2557 9.99574 30.332 9.99574 29.3691C9.99921 29.1765 9.94976 28.9865 9.85258 28.8192C9.75512 28.6522 9.61369 28.5138 9.44307 28.419C9.10412 28.2139 8.67641 28.2139 8.33739 28.419C7.48796 28.9104 6.47283 29.045 5.52138 28.7922C4.57651 28.5354 3.77076 27.9268 3.27567 27.0956L0.494378 22.3618C0.00532336 21.529 -0.127419 20.54 0.125345 19.6112C0.377828 18.6824 0.995286 17.8899 1.84183 17.4076C2.01565 17.315 2.16083 17.1778 2.26119 17.0102C2.36154 16.8429 2.41389 16.6518 2.41187 16.4575C2.41418 16.2675 2.36415 16.0803 2.26669 15.9158C2.16923 15.7517 2.02838 15.6162 1.85919 15.5244C1.00835 15.0416 0.387105 14.2474 0.131158 13.3155C-0.124501 12.3838 0.00592974 11.3905 0.4944 10.5532L3.27569 5.81937C3.77082 4.98825 4.57653 4.37957 5.5214 4.12281C6.479 3.89388 7.48976 4.05947 8.32009 4.58097C8.5477 4.72384 8.82042 4.78122 9.08764 4.74259C9.35516 4.70425 9.59925 4.57216 9.77567 4.37107C9.95208 4.16997 10.0484 3.91319 10.0475 3.64762C10.0429 2.68191 10.4304 1.75393 11.1243 1.0694C11.8181 0.384868 12.7611 0 13.7445 0H19.3072C20.2879 0 21.2281 0.382315 21.9214 1.06344C22.6146 1.74428 23.0042 2.66766 23.0042 3.6309C23.0007 3.82347 23.0501 4.01321 23.1473 4.18051C23.2448 4.34781 23.3862 4.48614 23.5571 4.58101C23.8961 4.78608 24.3238 4.78608 24.6628 4.58101C25.5119 4.08934 26.5271 3.9547 27.4785 4.20778C28.4234 4.46455 29.2291 5.07322 29.7242 5.90434L32.5055 10.6382L32.5058 10.6379C32.9946 11.4707 33.1273 12.46 32.8748 13.3888C32.6221 14.3173 32.0049 15.1098 31.1581 15.5924C30.9842 15.6847 30.8391 15.8222 30.7387 15.9895C30.6384 16.1571 30.5863 16.3482 30.588 16.5425C30.5857 16.7325 30.636 16.9197 30.7332 17.0839C30.8307 17.2483 30.9715 17.3835 31.141 17.4756C31.9915 17.9584 32.6128 18.7526 32.8687 19.6842C33.1244 20.6161 32.994 21.6095 32.5058 22.4468L29.7245 27.1806L29.7242 27.1803C29.2291 28.0114 28.4234 28.6201 27.4785 28.8772C26.5328 29.1311 25.5226 28.9962 24.6798 28.504C24.4522 28.3611 24.1798 28.3034 23.9123 28.342C23.6447 28.3807 23.4006 28.5125 23.2242 28.7136C23.0481 28.9147 22.9515 29.1717 22.9524 29.437C22.9341 30.3883 22.5368 31.2943 21.8456 31.9607C21.1541 32.6271 20.224 33.0003 19.2555 33L19.2554 33ZM8.89014 25.7213C9.53941 25.7239 10.1768 25.8934 10.7388 26.2136C11.3022 26.5291 11.7704 26.9858 12.0952 27.5375C12.4199 28.0888 12.5897 28.7151 12.5871 29.3522C12.5871 29.6419 12.7031 29.9197 12.9099 30.1262C13.1166 30.3324 13.398 30.4506 13.6927 30.4551H19.2554C19.5486 30.4551 19.8298 30.3407 20.0371 30.137C20.2445 29.9334 20.3611 29.6573 20.3611 29.3692C20.3573 28.7296 20.5265 28.1004 20.851 27.546C21.1758 26.9915 21.6446 26.5317 22.2094 26.2136C22.7693 25.8881 23.4076 25.7162 24.0581 25.7162C24.7085 25.7162 25.3468 25.8881 25.9064 26.2136C26.1603 26.3613 26.464 26.403 26.7495 26.3298C27.0349 26.2565 27.279 26.0741 27.4268 25.8233L30.2946 21.0895C30.4441 20.8427 30.4863 20.5473 30.4114 20.2695C30.3368 19.992 30.1514 19.7554 29.8972 19.6134C29.1427 19.1873 28.5654 18.513 28.2672 17.7097C27.969 16.9065 27.969 16.0257 28.2672 15.2224C28.5654 14.4194 29.1426 13.7451 29.8972 13.3188C30.1526 13.1736 30.3382 12.9342 30.4128 12.6538C30.4875 12.3732 30.445 12.0752 30.2946 11.8258L27.4268 7.09201C27.2787 6.84234 27.0369 6.65942 26.7529 6.58301C26.4715 6.51029 26.1722 6.55318 25.9238 6.70174C24.7782 7.34736 23.3701 7.34707 22.2251 6.70088C21.0798 6.0547 20.3701 4.86006 20.3611 3.56313C20.3611 3.27341 20.2452 2.99562 20.0384 2.78909C19.8316 2.58288 19.5502 2.46472 19.2555 2.46018H13.6928C13.3996 2.46018 13.1185 2.57465 12.9111 2.7783C12.7037 2.98196 12.5872 3.25805 12.5872 3.54609C12.5909 4.18575 12.4217 4.81487 12.0972 5.36932C11.7725 5.92376 11.3036 6.3836 10.7388 6.70173C10.1789 7.02724 9.54058 7.19908 8.89016 7.19908C8.23974 7.19908 7.60146 7.02723 7.04181 6.70173C6.78788 6.55403 6.48422 6.51227 6.19874 6.58555C5.91329 6.65883 5.66921 6.84118 5.52142 7.09199L2.74013 11.8258C2.59061 12.0726 2.54839 12.368 2.623 12.6458C2.6979 12.9233 2.88329 13.1599 3.1375 13.3019C3.89202 13.728 4.46929 14.4023 4.76751 15.2056C5.06568 16.0089 5.06568 16.8896 4.76751 17.6929C4.46934 18.4959 3.89209 19.1702 3.1375 19.5966C2.87924 19.7389 2.6898 19.9772 2.61172 20.2578C2.53392 20.5384 2.57383 20.8381 2.72277 21.0895L5.50407 25.8233C5.65214 26.073 5.89421 26.2559 6.17793 26.3323C6.45933 26.405 6.75866 26.3621 7.00707 26.2136C7.58086 25.8923 8.22958 25.7228 8.89014 25.7214V25.7213Z" fill="#BF1B2C" stroke="black" stroke-width="1.4" mask="url(#path-1-inside-1_119_40)"/>
<path d="M13.4803 13.5078L13.4802 13.5079C12.6851 14.2891 12.2371 15.3496 12.2371 16.4571C12.2371 17.5646 12.6851 18.625 13.4802 19.4062L13.4803 19.4063C14.2754 20.187 15.3522 20.6246 16.4741 20.6246C17.596 20.6246 18.6727 20.187 19.4679 19.4063L19.468 19.4062C20.2631 18.6251 20.7111 17.5646 20.7111 16.4571C20.7111 15.3496 20.2631 14.2891 19.468 13.5079L19.4679 13.5078C18.6728 12.7272 17.596 12.2896 16.4741 12.2896C15.3522 12.2896 14.2755 12.7272 13.4803 13.5078ZM16.4741 22.4695C14.8467 22.4695 13.2874 21.8346 12.1386 20.7062C10.9899 19.5781 10.3458 18.0496 10.3458 16.4571C10.3458 14.8645 10.9899 13.336 12.1386 12.2079C13.2874 11.0796 14.8467 10.4446 16.4741 10.4446C18.1015 10.4446 19.6608 11.0796 20.8096 12.2079C21.9583 13.336 22.6024 14.8645 22.6024 16.4571C22.6024 18.0497 21.9583 19.5781 20.8096 20.7062C19.6608 21.8346 18.1015 22.4695 16.4741 22.4695Z" fill="#BF1B2C" stroke="black" stroke-width="0.7"/>
</svg>
