<svg width="30" height="30" viewBox="0 0 30 30" fill="none" xmlns="http://www.w3.org/2000/svg">
<path d="M1.82319 1.56252C2.80912 0.760048 4.1565 0.301376 5.57177 0.3H24.4282C25.8436 0.301345 27.1909 0.760012 28.1768 1.56251C29.1607 2.36341 29.6982 3.4346 29.7 4.53529V26.1626C29.6992 27.0219 29.3054 27.8637 28.5717 28.52C27.8366 29.1774 26.8167 29.5964 25.7072 29.6823C24.5982 29.7682 23.4944 29.5137 22.6131 28.9764L15.414 24.5816C15.4139 24.5816 15.4139 24.5816 15.4139 24.5815C15.1655 24.429 14.8341 24.429 14.5856 24.5815C14.5856 24.5816 14.5856 24.5816 14.5856 24.5816L7.3863 28.9765L7.38627 28.9765C6.50527 29.5144 5.40159 29.7694 4.29205 29.6837C3.18267 29.5981 2.16211 29.179 1.4269 28.5212C0.693501 27.8647 0.3 27.0225 0.3 26.1628V4.53504C0.301896 3.43438 0.839294 2.36336 1.82319 1.56252ZM1.82319 1.56252L1.63382 1.32984M1.82319 1.56252L1.63382 1.32984M1.63382 1.32984C0.589446 2.17991 0.00198368 3.33244 0 4.53479L5.57164 0C4.09454 0.00140154 2.67848 0.47957 1.63382 1.32984ZM2.27107 4.53451V4.53491L2.27125 26.163C2.27125 26.6923 2.5143 27.189 2.92911 27.5601C3.34212 27.9297 3.8995 28.1528 4.4887 28.1984L4.48883 28.1984C5.07822 28.2438 5.67204 28.1098 6.1562 27.8143L13.3554 23.4208C13.3556 23.4208 13.3557 23.4207 13.3558 23.4206C13.826 23.1357 14.4026 22.9786 14.9999 22.9786C15.5973 22.9786 16.1738 23.1357 16.6441 23.4206C16.6442 23.4207 16.6443 23.4208 16.6445 23.4208L23.8437 27.8143C24.3279 28.1098 24.9217 28.2438 25.5111 28.1984L25.5112 28.1984C26.1004 28.1528 26.6577 27.9297 27.0708 27.5601C27.4856 27.189 27.7286 26.6923 27.7286 26.163L27.7286 4.53491L27.7286 4.5345C27.7276 3.7855 27.3609 3.08345 26.7381 2.57652C26.1172 2.0708 25.2863 1.79389 24.429 1.79314H24.4287L5.57127 1.79314L5.571 1.79314C4.71376 1.79391 3.8826 2.07079 3.26164 2.57645C2.63878 3.08339 2.27207 3.78548 2.27107 4.53451Z" fill="white" stroke="black" stroke-width="0.6"/>
</svg>
