<svg width="45" height="45" viewBox="0 0 45 45" fill="none" xmlns="http://www.w3.org/2000/svg">
<path d="M39.4819 13.4639C39.4993 13.8599 39.4993 14.2379 39.4993 14.6339C39.5167 26.64 30.6958 40.5 14.5647 40.5C9.80697 40.5 5.13607 39.078 1.125 36.414C1.81956 36.504 2.51411 36.54 3.20867 36.54C7.15028 36.54 10.9877 35.172 14.0959 32.634C10.3452 32.562 7.0461 30.024 5.90008 26.316C7.21974 26.586 8.57413 26.532 9.85906 26.154C5.77853 25.326 2.84403 21.5999 2.82667 17.2619C2.82667 17.2259 2.82667 17.1899 2.82667 17.1539C4.04214 17.8559 5.41389 18.2519 6.80301 18.2879C2.96558 15.6239 1.76747 10.3139 4.09423 6.15589C8.55676 11.8439 15.1203 15.2819 22.1701 15.6599C21.4582 12.5099 22.4305 9.1979 24.7052 6.96589C28.2301 3.52788 33.7866 3.70788 37.1204 7.36189C39.0826 6.96589 40.9752 6.20989 42.6943 5.14789C42.0344 7.25389 40.6627 9.0359 38.8395 10.1699C40.5759 9.9539 42.2775 9.4679 43.875 8.7479C42.6943 10.5839 41.201 12.1679 39.4819 13.4639Z" fill="#1D9BF0"/>
</svg>
